<?xml version="1.0" standalone="no"?>
<!DOCTYPE svg PUBLIC "-//W3C//DTD SVG 20010904//EN"
 "http://www.w3.org/TR/2001/REC-SVG-20010904/DTD/svg10.dtd">
<svg version="1.0" xmlns="http://www.w3.org/2000/svg"
 width="1024.000000pt" height="1024.000000pt" viewBox="0 0 1024.000000 1024.000000"
 preserveAspectRatio="xMidYMid meet">

<g transform="translate(0.000000,1024.000000) scale(0.100000,-0.100000)"
fill="#000000" stroke="none">
<path d="M2670 8790 c-284 -29 -570 -151 -775 -331 -224 -196 -375 -456 -448
-771 l-21 -93 -3 -2405 c-3 -1587 0 -2440 6 -2508 54 -541 420 -999 936 -1171
244 -82 1 -75 2680 -79 1729 -2 2421 0 2503 8 469 47 849 284 1079 672 97 165
155 330 182 523 6 45 9 956 8 2525 l-2 2455 -22 90 c-96 396 -307 693 -638
895 -128 79 -261 130 -447 173 l-93 21 -2435 2 c-1339 1 -2469 -2 -2510 -6z
m4262 -1152 c68 -31 136 -98 169 -165 l24 -48 5 -940 5 -940 -46 -75 c-25 -41
-148 -235 -274 -430 -126 -195 -309 -481 -408 -635 -99 -154 -229 -358 -291
-452 -200 -311 -185 -259 -220 -728 -3 -33 -10 -121 -17 -195 -7 -74 -9 -151
-5 -171 9 -53 63 -100 120 -106 56 -7 60 -5 321 125 317 157 440 227 477 272
18 21 101 144 183 272 l150 235 3 -403 c2 -386 1 -405 -18 -458 -29 -77 -96
-148 -178 -188 l-67 -33 -1715 0 -1715 0 -56 28 c-67 32 -142 109 -172 175
-16 36 -22 73 -25 164 l-4 117 223 3 c218 3 225 4 280 29 143 67 221 220 190
372 -16 78 -46 130 -108 188 -80 75 -122 86 -368 92 l-210 5 0 229 0 228 215
6 c245 6 279 14 355 81 157 138 164 358 17 505 -85 86 -126 96 -380 101 l-212
4 2 231 3 232 220 6 c236 6 258 10 332 62 91 65 152 203 139 315 -14 115 -91
222 -194 270 -55 26 -65 27 -277 32 l-220 5 -3 233 -2 232 178 0 c261 0 333
19 424 112 121 124 125 328 8 461 -82 94 -165 117 -424 117 l-189 0 5 108 c7
150 43 223 142 291 93 65 -41 60 1841 58 l1710 -2 57 -27z m-3295 -624 c109
-88 104 -227 -10 -302 l-41 -27 -336 0 -337 0 -48 30 c-60 37 -87 87 -87 156
0 65 38 124 102 157 45 22 48 23 382 20 l336 -3 39 -31z m4129 -1109 c27 -9
99 -46 159 -83 124 -77 165 -125 186 -215 9 -45 9 -62 -5 -108 -16 -55 -185
-331 -202 -330 -5 0 -40 20 -79 44 -38 24 -158 98 -265 165 -107 66 -204 127
-214 135 -19 14 -16 20 70 158 128 205 145 219 295 248 3 1 28 -6 55 -14z
m-4145 -37 c54 -32 74 -59 90 -121 19 -77 -20 -161 -91 -197 -37 -19 -60 -20
-369 -20 -209 0 -340 4 -358 11 -34 13 -80 55 -99 91 -18 35 -18 121 0 157 20
38 80 89 114 97 15 3 32 7 37 9 6 2 150 3 320 2 l310 -2 46 -27z m3741 -556
c67 -43 196 -125 286 -181 89 -56 162 -106 161 -109 0 -4 -26 -46 -57 -94 -31
-49 -109 -168 -172 -265 -63 -98 -197 -306 -299 -463 -101 -157 -225 -348
-274 -425 -50 -77 -118 -183 -152 -235 -34 -52 -89 -138 -123 -190 -60 -94
-63 -97 -159 -152 -54 -31 -158 -88 -231 -127 l-132 -71 -28 25 c-15 15 -51
41 -81 58 l-53 32 6 70 c4 39 13 145 21 237 9 92 19 179 25 193 5 14 38 69 73
123 35 53 122 187 192 297 70 110 151 236 180 280 28 44 88 136 132 205 214
336 558 870 560 870 0 0 57 -35 125 -78z m-3778 -584 c108 -33 162 -164 108
-263 -16 -30 -64 -72 -95 -84 -18 -7 -146 -11 -348 -11 -266 0 -326 3 -357 15
-75 32 -112 86 -112 165 0 83 45 148 121 179 37 15 633 14 683 -1z m33 -1165
c129 -70 131 -258 3 -323 -37 -19 -60 -20 -369 -20 -209 0 -340 4 -358 11 -35
13 -80 55 -100 93 -20 38 -20 114 0 153 21 40 80 91 115 99 15 3 32 7 37 9 6
2 150 3 320 2 300 -2 311 -3 352 -24z"/>
<path d="M5119 7081 c-27 -28 -29 -35 -29 -108 l0 -79 -77 -18 c-102 -23 -219
-85 -283 -149 -187 -187 -179 -527 17 -670 91 -66 188 -104 424 -167 82 -22
171 -51 198 -65 90 -45 119 -117 79 -195 -32 -64 -104 -99 -214 -105 -111 -6
-194 16 -342 92 -171 88 -197 85 -279 -27 -39 -54 -48 -73 -48 -109 0 -38 5
-47 38 -77 78 -67 257 -145 410 -179 l77 -17 0 -73 c0 -64 3 -77 26 -104 23
-28 31 -31 84 -31 32 0 66 3 75 6 28 11 45 60 45 133 l0 70 58 11 c147 29 247
78 332 164 147 147 170 423 49 590 -74 103 -208 171 -483 242 -210 54 -264 79
-295 134 -19 34 -22 50 -16 86 24 162 291 186 543 48 67 -36 115 -43 148 -20
30 21 124 168 124 194 0 45 -23 71 -104 116 -79 45 -228 98 -313 111 l-43 7 0
75 c0 114 -22 142 -113 143 -52 0 -62 -4 -88 -29z"/>
<path d="M4301 4503 c-21 -19 -33 -41 -37 -69 -5 -36 -2 -45 24 -75 l30 -34
839 -3 c461 -1 849 0 861 3 72 18 95 109 43 167 l-29 33 -851 3 -850 2 -30
-27z"/>
<path d="M4318 4021 c-31 -15 -58 -57 -58 -91 0 -34 28 -78 60 -95 25 -13 102
-15 529 -15 300 0 510 4 525 10 30 11 66 65 66 97 0 31 -18 65 -44 85 -21 15
-72 17 -536 20 -424 2 -518 1 -542 -11z"/>
</g>
</svg>
